<svg width="148" height="75" viewBox="0 0 148 75" fill="none" xmlns="http://www.w3.org/2000/svg">
<g filter="url(#filter0_d_659_5535)">
<path d="M118.084 21.953C103.62 6.32493 81.6774 -1.48008 60.569 0.571667C39.7636 2.59342 20.8841 14.8529 9.85444 32.5267C3.8282 42.1855 -0.287279 53.7581 0.0156826 65.2526C0.0486784 66.5035 2.36438 65.6966 2.48437 64.7667C5.04005 45.1071 14.0959 27.0404 30.4048 15.2308C46.5728 3.52028 67.7051 1.0636 86.5307 7.24284C97.1224 10.7194 106.673 16.7396 114.232 24.9466C115.681 26.5214 119.788 23.7948 118.084 21.953Z" fill="white"/>
<path d="M144.3 29.9909C143.322 19.8552 140.529 9.95335 136.201 0.74749C135.313 -1.14228 131.227 0.921462 132.127 2.84122C135.916 10.9372 138.481 19.5222 139.623 28.3921C140.16 32.5616 140.397 36.7701 140.325 40.9725C140.292 42.9343 140.796 46.5549 138.187 46.7348C136.501 46.8518 134.731 46.2849 133.12 45.8919C124.187 43.7112 115.308 41.2815 106.514 38.5968C97.6617 35.8941 88.9538 32.7266 80.0719 30.1379C78.86 29.7839 76.3314 31.6287 78.0682 32.4356C87.8319 36.974 98.3246 40.1626 108.625 43.2493C113.83 44.8091 119.061 46.2909 124.319 47.6527C128.357 48.6966 132.79 50.4183 137.011 50.2414C140.412 50.1004 143.616 48.3096 144.369 44.7761C145.359 40.1446 144.753 34.6643 144.3 29.9909Z" fill="white"/>
</g>
<defs>
<filter id="filter0_d_659_5535" x="0" y="0" width="147.902" height="74.894" filterUnits="userSpaceOnUse" color-interpolation-filters="sRGB">
<feFlood flood-opacity="0" result="BackgroundImageFix"/>
<feColorMatrix in="SourceAlpha" type="matrix" values="0 0 0 0 0 0 0 0 0 0 0 0 0 0 0 0 0 0 127 0" result="hardAlpha"/>
<feOffset dx="3" dy="9"/>
<feComposite in2="hardAlpha" operator="out"/>
<feColorMatrix type="matrix" values="0 0 0 0 0.337255 0 0 0 0 0.203922 0 0 0 0 0.866667 0 0 0 1 0"/>
<feBlend mode="normal" in2="BackgroundImageFix" result="effect1_dropShadow_659_5535"/>
<feBlend mode="normal" in="SourceGraphic" in2="effect1_dropShadow_659_5535" result="shape"/>
</filter>
</defs>
</svg>
