<svg width="211" height="107" viewBox="0 0 211 107" fill="none" xmlns="http://www.w3.org/2000/svg">
<g filter="url(#filter0_d_659_5561)">
<path d="M178.539 20.098C169.412 8.42257 152.132 9.07678 139.099 12.0527C124.892 15.2974 111.01 22.711 101.836 34.2369C96.9898 40.3266 94.0018 47.2208 92.1718 54.7493C90.1721 62.9667 88.3042 70.805 82.9995 77.6057C73.7014 89.5298 58.0935 96.3397 43.0308 93.8177C26.0128 90.9686 11.4058 77.2963 7.25858 60.5904C6.86608 59.0052 4.0956 60.738 4.39595 62.1345C7.5414 76.723 18.2475 88.9448 32.0438 94.5089C45.8112 100.061 61.2319 98.0109 73.5931 89.9655C79.6162 86.0445 84.7902 80.8915 88.5898 74.783C93.1608 67.4294 94.3645 59.1467 96.7088 50.9658C101.073 35.7441 113.322 24.7891 127.698 18.9571C141.645 13.2998 164.338 9.11563 175.055 22.9175C176.308 24.5427 179.814 21.7303 178.539 20.098Z" fill="white"/>
<path d="M197.318 20.7257C196.041 17.5874 194.761 14.4461 193.481 11.3085C192.892 9.85966 192.3 8.41154 191.711 6.96267C191.101 5.46451 190.648 3.4725 189.413 2.40833C188.003 1.19234 185.638 2.78914 185.588 4.51356C185.54 6.28737 186.433 7.86094 187.096 9.48272C187.688 10.9308 188.28 12.3789 188.872 13.8271C190.156 16.9639 191.436 20.1015 192.719 23.2383C194.491 27.5797 196.266 31.9167 198.041 36.2537C193.492 34.5672 188.847 33.1583 184.117 32.1206C180.61 31.3503 177.054 30.7784 173.486 30.4359C169.99 30.1012 166.32 29.7414 162.835 30.1924C161.684 30.3405 159.414 32.9357 161.525 33.3289C164.744 33.9288 168.063 33.9775 171.309 34.418C174.73 34.8836 178.127 35.4849 181.496 36.2455C188.212 37.7602 194.737 39.968 201.027 42.8203C202.645 43.5548 205.789 41.5572 204.988 39.5609C202.452 33.2767 199.875 27.0053 197.318 20.7257Z" fill="white"/>
</g>
<defs>
<filter id="filter0_d_659_5561" x="4.37305" y="1.98137" width="203.743" height="104.652" filterUnits="userSpaceOnUse" color-interpolation-filters="sRGB">
<feFlood flood-opacity="0" result="BackgroundImageFix"/>
<feColorMatrix in="SourceAlpha" type="matrix" values="0 0 0 0 0 0 0 0 0 0 0 0 0 0 0 0 0 0 127 0" result="hardAlpha"/>
<feOffset dx="3" dy="9"/>
<feComposite in2="hardAlpha" operator="out"/>
<feColorMatrix type="matrix" values="0 0 0 0 0.337255 0 0 0 0 0.203922 0 0 0 0 0.866667 0 0 0 1 0"/>
<feBlend mode="normal" in2="BackgroundImageFix" result="effect1_dropShadow_659_5561"/>
<feBlend mode="normal" in="SourceGraphic" in2="effect1_dropShadow_659_5561" result="shape"/>
</filter>
</defs>
</svg>
