<svg width="164" height="140" viewBox="0 0 164 140" fill="none" xmlns="http://www.w3.org/2000/svg">
<g filter="url(#filter0_d_659_5549)">
<path d="M0.0152612 32.0819C2.28957 46.744 4.56773 61.4045 6.84472 76.0678C5.99052 78.3453 5.12299 80.6168 4.30758 82.9086C3.64409 84.7768 6.84555 85.1378 7.92777 84.5769C8.19316 84.4392 8.44727 84.2835 8.71266 84.1458C10.145 85.0446 13.0086 84.514 12.7467 82.8368C12.7019 82.5562 12.6598 82.2769 12.615 81.9963C26.337 74.1626 38.5786 64.0163 48.7611 51.9111C49.5333 50.992 48.6185 50.0979 47.7896 49.7376C40.7749 46.6954 33.7653 43.6491 26.7518 40.6043C28.6405 36.6384 30.5668 32.6894 32.5724 28.7794C35.4843 23.1072 38.4263 17.3393 42.5541 12.43C49.6239 4.01919 62.0684 -1.05565 70.8096 8.1554C78.2499 15.9963 79.906 27.7502 79.3531 38.0788C78.1798 59.9401 65.9919 81.7136 71.6348 103.795C73.97 112.929 79.4741 121.808 87.8003 126.627C97.0185 131.96 107.658 130.493 116.876 126.03C138.582 115.521 152.296 93.0841 158.89 70.6476C159.347 69.0947 156.207 68.906 155.745 70.2188C148.451 90.8678 136.784 111.706 116.766 122.396C111.86 125.016 106.454 127.173 100.795 127.121C95.6846 127.07 90.8392 124.889 87.0087 121.58C78.9433 114.618 75.1321 103.958 74.8578 93.5593C74.269 71.2519 86.2492 50.449 83.731 27.974C82.6528 18.3643 78.5429 7.33512 69.5847 2.39244C60.8314 -2.43874 49.854 0.560534 42.6823 6.80987C37.8533 11.0178 34.3942 16.4211 31.3408 21.9846C28.3033 27.5198 25.487 33.1804 22.751 38.8707C16.3371 36.0861 9.91801 33.3057 3.50648 30.5157C2.52159 30.0788 -0.227855 30.5064 0.0152612 32.0819ZM20.2102 41.646C16.7531 42.2759 13.2837 42.8327 9.80693 43.3412C11.1917 41.8716 12.5765 40.402 13.9586 38.9312C16.0429 39.8375 18.1258 40.7398 20.2102 41.646ZM12.237 74.7466C12.8835 73.0379 13.5343 71.3343 14.1996 69.6341C16.6894 69.5751 19.1693 69.3733 21.642 69.0943C18.6053 71.1352 15.4644 73.0134 12.237 74.7466ZM9.39291 61.4291C9.6707 61.4288 9.94107 61.409 10.1804 61.3721C11.0842 61.2292 11.9867 61.089 12.8904 60.946C12.1734 62.668 11.436 64.3776 10.7377 66.108C10.5416 66.1708 10.3484 66.2414 10.1535 66.3015C9.90304 64.6777 9.64991 63.0527 9.39291 61.4291ZM29.3241 65.7272C28.6961 65.3866 27.846 65.2097 27.2871 65.3181C24.7313 65.8104 22.1596 66.1445 19.5784 66.3778C25.065 64.4239 30.4677 62.2618 35.7708 59.862C33.6868 61.8881 31.5367 63.8458 29.3241 65.7272ZM16.3528 64.2344C16.9071 62.8668 17.4588 61.498 18.0239 60.1352C22.7114 59.3969 27.3989 58.6587 32.0891 57.9216C26.9311 60.2356 21.6844 62.3522 16.3528 64.2344ZM15.0685 55.728C13.0266 56.6349 10.9746 57.5212 8.91822 58.3958C8.72332 57.1507 8.52843 55.9055 8.33353 54.6604C8.37805 54.6547 8.43359 54.6604 8.47543 54.6535C11.0696 54.1046 13.6638 53.5556 16.2607 53.0079C15.862 53.915 15.4618 54.8184 15.0685 55.728ZM7.10469 46.8122C9.91697 46.4386 12.7213 46.0325 15.5225 45.5831C12.9435 47.425 10.3618 49.2656 7.77722 51.0984C7.55215 49.6693 7.32708 48.2402 7.10469 46.8122ZM15.3447 50.0299C16.4569 49.2445 17.5677 48.4554 18.6799 47.6701C18.404 48.2757 18.1269 48.884 17.8537 49.4908C17.0186 49.6678 16.1811 49.8502 15.3447 50.0299ZM6.28085 41.5641C6.16757 40.8476 6.05551 40.1284 5.94223 39.4119C6.71868 39.4657 7.49112 39.4855 8.2597 39.4778C7.6018 40.1719 6.94263 40.8686 6.28085 41.5641ZM42.0571 53.2848C42.044 53.2853 42.0281 53.2846 42.015 53.2851C35.1052 54.37 28.1951 55.4484 21.2866 56.5307C26.2851 54.2124 31.1818 51.6971 35.7815 48.6367C35.8597 48.585 35.8825 48.5342 35.9487 48.4804C38.4489 49.5674 40.9503 50.6517 43.4505 51.7387C42.9935 52.266 42.5185 52.7691 42.0571 53.2848ZM25.2306 43.8257C27.3203 44.7343 29.4101 45.6429 31.501 46.5489C28.7167 47.1473 25.9312 47.7484 23.1469 48.3468C23.448 47.685 23.7318 47.0187 24.0357 46.3581C24.4237 45.5104 24.836 44.6736 25.2306 43.8257ZM8.47134 36.5478C7.68092 36.5681 6.88999 36.5753 6.09892 36.5182C5.91527 36.5031 5.70492 36.5112 5.49221 36.5248C5.42021 36.068 5.34965 35.6151 5.27913 35.1621C6.344 35.6222 7.40768 36.085 8.47134 36.5478Z" fill="white"/>
</g>
<defs>
<filter id="filter0_d_659_5549" x="0" y="0" width="163.936" height="139.042" filterUnits="userSpaceOnUse" color-interpolation-filters="sRGB">
<feFlood flood-opacity="0" result="BackgroundImageFix"/>
<feColorMatrix in="SourceAlpha" type="matrix" values="0 0 0 0 0 0 0 0 0 0 0 0 0 0 0 0 0 0 127 0" result="hardAlpha"/>
<feOffset dx="5" dy="9"/>
<feComposite in2="hardAlpha" operator="out"/>
<feColorMatrix type="matrix" values="0 0 0 0 0.337255 0 0 0 0 0.203922 0 0 0 0 0.866667 0 0 0 1 0"/>
<feBlend mode="normal" in2="BackgroundImageFix" result="effect1_dropShadow_659_5549"/>
<feBlend mode="normal" in="SourceGraphic" in2="effect1_dropShadow_659_5549" result="shape"/>
</filter>
</defs>
</svg>
